<svg version="1.1" xmlns:xlink="http://www.w3.org/1999/xlink" xmlns="http://www.w3.org/2000/svg" width="1816" height="350"><defs><style type="text/css">.c{fill:none;stroke:#222222;}.j{fill:#000000;font-family:Verdana,Sans-serif;font-size:12px;}.l{fill:#90d9ff;stroke:#222222;}.r{fill:#d3f0ff;stroke:#222222;}</style></defs><path class="c" d="M0 22h25m30 0h1756m-1801 0q5 0 5 5v50q0 5 5 5h5m25 0h30m26 0h30m-5 0q-5 0-5-5v-17q0-5 5-5h105q5 0 5 5v17q0 5-5 5m-5 0h30m26 0h559m-776 55q0 5 5 5h5m28 0h30m-5 0q-5 0-5-5v-17q0-5 5-5h109q5 0 5 5v17q0 5-5 5m-104 0h20m59 0h20m-94 0q5 0 5 5v8q0 5 5 5h69q5 0 5-5v-8q0-5 5-5m5 0h30m25 0h10m81 0h50m-5 0q-5 0-5-5v-32q0-5 5-5h309q5 0 5 5v32q0 5-5 5m-280 0h30m-5 0q-5 0-5-5v-17q0-5 5-5h109q5 0 5 5v17q0 5-5 5m-104 0h20m59 0h20m-94 0q5 0 5 5v8q0 5 5 5h69q5 0 5-5v-8q0-5 5-5m5 0h30m25 0h10m81 0h40m-374 0q5 0 5 5v23q0 5 5 5h349q5 0 5-5v-23q0-5 5-5m5 0h10m28 0h21q5 0 5-5m-766 75q0 5 5 5h5m28 0h10m68 0h10m25 0h10m81 0h50m-5 0q-5 0-5-5v-17q0-5 5-5h238q5 0 5 5v17q0 5-5 5m-209 0h10m68 0h10m25 0h10m81 0h40m-303 0q5 0 5 5v8q0 5 5 5h278q5 0 5-5v-8q0-5 5-5m5 0h10m28 0h163q5 0 5-5m-771-130q5 0 5 5v200q0 5 5 5h5m28 0h10m28 0h30m-5 0q-5 0-5-5v-17q0-5 5-5h109q5 0 5 5v17q0 5-5 5m-104 0h20m59 0h20m-94 0q5 0 5 5v8q0 5 5 5h69q5 0 5-5v-8q0-5 5-5m5 0h30m25 0h10m51 0h50m-5 0q-5 0-5-5v-32q0-5 5-5h317q5 0 5 5v32q0 5-5 5m-288 0h10m28 0h30m-5 0q-5 0-5-5v-17q0-5 5-5h109q5 0 5 5v17q0 5-5 5m-104 0h20m59 0h20m-94 0q5 0 5 5v8q0 5 5 5h69q5 0 5-5v-8q0-5 5-5m5 0h30m25 0h10m51 0h40m-382 0q5 0 5 5v23q0 5 5 5h357q5 0 5-5v-23q0-5 5-5m5 0h10m28 0h5q5 0 5-5v-200q0-5 5-5m5 0h50m-5 0q-5 0-5-5v-32q0-5 5-5h830q5 0 5 5v32q0 5-5 5m-801 0h30m26 0h30m-5 0q-5 0-5-5v-17q0-5 5-5h105q5 0 5 5v17q0 5-5 5m-5 0h30m26 0h559m-776 55q0 5 5 5h5m28 0h30m-5 0q-5 0-5-5v-17q0-5 5-5h109q5 0 5 5v17q0 5-5 5m-104 0h20m59 0h20m-94 0q5 0 5 5v8q0 5 5 5h69q5 0 5-5v-8q0-5 5-5m5 0h30m25 0h10m81 0h50m-5 0q-5 0-5-5v-32q0-5 5-5h309q5 0 5 5v32q0 5-5 5m-280 0h30m-5 0q-5 0-5-5v-17q0-5 5-5h109q5 0 5 5v17q0 5-5 5m-104 0h20m59 0h20m-94 0q5 0 5 5v8q0 5 5 5h69q5 0 5-5v-8q0-5 5-5m5 0h30m25 0h10m81 0h40m-374 0q5 0 5 5v23q0 5 5 5h349q5 0 5-5v-23q0-5 5-5m5 0h10m28 0h21q5 0 5-5m-766 75q0 5 5 5h5m28 0h10m68 0h10m25 0h10m81 0h50m-5 0q-5 0-5-5v-17q0-5 5-5h238q5 0 5 5v17q0 5-5 5m-209 0h10m68 0h10m25 0h10m81 0h40m-303 0q5 0 5 5v8q0 5 5 5h278q5 0 5-5v-8q0-5 5-5m5 0h10m28 0h163q5 0 5-5m-771-130q5 0 5 5v200q0 5 5 5h5m28 0h10m28 0h30m-5 0q-5 0-5-5v-17q0-5 5-5h109q5 0 5 5v17q0 5-5 5m-104 0h20m59 0h20m-94 0q5 0 5 5v8q0 5 5 5h69q5 0 5-5v-8q0-5 5-5m5 0h30m25 0h10m51 0h50m-5 0q-5 0-5-5v-32q0-5 5-5h317q5 0 5 5v32q0 5-5 5m-288 0h10m28 0h30m-5 0q-5 0-5-5v-17q0-5 5-5h109q5 0 5 5v17q0 5-5 5m-104 0h20m59 0h20m-94 0q5 0 5 5v8q0 5 5 5h69q5 0 5-5v-8q0-5 5-5m5 0h30m25 0h10m51 0h40m-382 0q5 0 5 5v23q0 5 5 5h357q5 0 5-5v-23q0-5 5-5m5 0h10m28 0h5q5 0 5-5v-200q0-5 5-5m5 0h40m-895 0q5 0 5 5v248q0 5 5 5h870q5 0 5-5v-248q0-5 5-5m5 0h10m25 0h5q5 0 5-5v-50q0-5 5-5m5 0h5"/><rect class="l" x="25" y="5" width="30" height="25" rx="7"/><text class="j" x="35" y="22">[]</text><rect class="l" x="25" y="65" width="25" height="25" rx="7"/><text class="j" x="35" y="82">[</text><rect class="l" x="80" y="65" width="26" height="25" rx="7"/><text class="j" x="90" y="82">&quot;</text><a xlink:href="#UnicodeChar"><rect class="r" x="136" y="65" width="95" height="25"/><text class="j" x="146" y="82">UnicodeChar</text></a><rect class="l" x="261" y="65" width="26" height="25" rx="7"/><text class="j" x="271" y="82">&quot;</text><rect class="l" x="80" y="125" width="28" height="25" rx="7"/><text class="j" x="90" y="142">{</text><a xlink:href="#A-Za-z"><rect class="r" x="158" y="125" width="59" height="25"/><text class="j" x="168" y="142">A-Za-z</text></a><rect class="l" x="267" y="125" width="25" height="25" rx="7"/><text class="j" x="277" y="142">:</text><a xlink:href="#MathBlock"><rect class="r" x="302" y="125" width="81" height="25"/><text class="j" x="312" y="142">MathBlock</text></a><rect class="l" x="433" y="125" width="24" height="25" rx="7"/><text class="j" x="443" y="142">,</text><a xlink:href="#A-Za-z"><rect class="r" x="507" y="125" width="59" height="25"/><text class="j" x="517" y="142">A-Za-z</text></a><rect class="l" x="616" y="125" width="25" height="25" rx="7"/><text class="j" x="626" y="142">:</text><a xlink:href="#MathBlock"><rect class="r" x="651" y="125" width="81" height="25"/><text class="j" x="661" y="142">MathBlock</text></a><rect class="l" x="782" y="125" width="28" height="25" rx="7"/><text class="j" x="792" y="142">}</text><rect class="l" x="80" y="200" width="28" height="25" rx="7"/><text class="j" x="90" y="217">{</text><rect class="l" x="118" y="200" width="68" height="25" rx="7"/><text class="j" x="128" y="217">_inline_</text><rect class="l" x="196" y="200" width="25" height="25" rx="7"/><text class="j" x="206" y="217">:</text><a xlink:href="#MathBlock"><rect class="r" x="231" y="200" width="81" height="25"/><text class="j" x="241" y="217">MathBlock</text></a><rect class="l" x="362" y="200" width="24" height="25" rx="7"/><text class="j" x="372" y="217">,</text><rect class="l" x="396" y="200" width="68" height="25" rx="7"/><text class="j" x="406" y="217">_inline_</text><rect class="l" x="474" y="200" width="25" height="25" rx="7"/><text class="j" x="484" y="217">:</text><a xlink:href="#MathBlock"><rect class="r" x="509" y="200" width="81" height="25"/><text class="j" x="519" y="217">MathBlock</text></a><rect class="l" x="640" y="200" width="28" height="25" rx="7"/><text class="j" x="650" y="217">}</text><rect class="l" x="80" y="275" width="28" height="25" rx="7"/><text class="j" x="90" y="292">{</text><rect class="l" x="118" y="275" width="28" height="25" rx="7"/><text class="j" x="128" y="292">$</text><a xlink:href="#A-Za-z"><rect class="r" x="196" y="275" width="59" height="25"/><text class="j" x="206" y="292">A-Za-z</text></a><rect class="l" x="305" y="275" width="25" height="25" rx="7"/><text class="j" x="315" y="292">:</text><a xlink:href="#JSON"><rect class="r" x="340" y="275" width="51" height="25"/><text class="j" x="350" y="292">JSON</text></a><rect class="l" x="441" y="275" width="24" height="25" rx="7"/><text class="j" x="451" y="292">,</text><rect class="l" x="475" y="275" width="28" height="25" rx="7"/><text class="j" x="485" y="292">$</text><a xlink:href="#A-Za-z"><rect class="r" x="553" y="275" width="59" height="25"/><text class="j" x="563" y="292">A-Za-z</text></a><rect class="l" x="662" y="275" width="25" height="25" rx="7"/><text class="j" x="672" y="292">:</text><a xlink:href="#JSON"><rect class="r" x="697" y="275" width="51" height="25"/><text class="j" x="707" y="292">JSON</text></a><rect class="l" x="798" y="275" width="28" height="25" rx="7"/><text class="j" x="808" y="292">}</text><rect class="l" x="896" y="65" width="24" height="25" rx="7"/><text class="j" x="906" y="82">,</text><rect class="l" x="950" y="65" width="26" height="25" rx="7"/><text class="j" x="960" y="82">&quot;</text><a xlink:href="#UnicodeChar"><rect class="r" x="1006" y="65" width="95" height="25"/><text class="j" x="1016" y="82">UnicodeChar</text></a><rect class="l" x="1131" y="65" width="26" height="25" rx="7"/><text class="j" x="1141" y="82">&quot;</text><rect class="l" x="950" y="125" width="28" height="25" rx="7"/><text class="j" x="960" y="142">{</text><a xlink:href="#A-Za-z"><rect class="r" x="1028" y="125" width="59" height="25"/><text class="j" x="1038" y="142">A-Za-z</text></a><rect class="l" x="1137" y="125" width="25" height="25" rx="7"/><text class="j" x="1147" y="142">:</text><a xlink:href="#MathBlock"><rect class="r" x="1172" y="125" width="81" height="25"/><text class="j" x="1182" y="142">MathBlock</text></a><rect class="l" x="1303" y="125" width="24" height="25" rx="7"/><text class="j" x="1313" y="142">,</text><a xlink:href="#A-Za-z"><rect class="r" x="1377" y="125" width="59" height="25"/><text class="j" x="1387" y="142">A-Za-z</text></a><rect class="l" x="1486" y="125" width="25" height="25" rx="7"/><text class="j" x="1496" y="142">:</text><a xlink:href="#MathBlock"><rect class="r" x="1521" y="125" width="81" height="25"/><text class="j" x="1531" y="142">MathBlock</text></a><rect class="l" x="1652" y="125" width="28" height="25" rx="7"/><text class="j" x="1662" y="142">}</text><rect class="l" x="950" y="200" width="28" height="25" rx="7"/><text class="j" x="960" y="217">{</text><rect class="l" x="988" y="200" width="68" height="25" rx="7"/><text class="j" x="998" y="217">_inline_</text><rect class="l" x="1066" y="200" width="25" height="25" rx="7"/><text class="j" x="1076" y="217">:</text><a xlink:href="#MathBlock"><rect class="r" x="1101" y="200" width="81" height="25"/><text class="j" x="1111" y="217">MathBlock</text></a><rect class="l" x="1232" y="200" width="24" height="25" rx="7"/><text class="j" x="1242" y="217">,</text><rect class="l" x="1266" y="200" width="68" height="25" rx="7"/><text class="j" x="1276" y="217">_inline_</text><rect class="l" x="1344" y="200" width="25" height="25" rx="7"/><text class="j" x="1354" y="217">:</text><a xlink:href="#MathBlock"><rect class="r" x="1379" y="200" width="81" height="25"/><text class="j" x="1389" y="217">MathBlock</text></a><rect class="l" x="1510" y="200" width="28" height="25" rx="7"/><text class="j" x="1520" y="217">}</text><rect class="l" x="950" y="275" width="28" height="25" rx="7"/><text class="j" x="960" y="292">{</text><rect class="l" x="988" y="275" width="28" height="25" rx="7"/><text class="j" x="998" y="292">$</text><a xlink:href="#A-Za-z"><rect class="r" x="1066" y="275" width="59" height="25"/><text class="j" x="1076" y="292">A-Za-z</text></a><rect class="l" x="1175" y="275" width="25" height="25" rx="7"/><text class="j" x="1185" y="292">:</text><a xlink:href="#JSON"><rect class="r" x="1210" y="275" width="51" height="25"/><text class="j" x="1220" y="292">JSON</text></a><rect class="l" x="1311" y="275" width="24" height="25" rx="7"/><text class="j" x="1321" y="292">,</text><rect class="l" x="1345" y="275" width="28" height="25" rx="7"/><text class="j" x="1355" y="292">$</text><a xlink:href="#A-Za-z"><rect class="r" x="1423" y="275" width="59" height="25"/><text class="j" x="1433" y="292">A-Za-z</text></a><rect class="l" x="1532" y="275" width="25" height="25" rx="7"/><text class="j" x="1542" y="292">:</text><a xlink:href="#JSON"><rect class="r" x="1567" y="275" width="51" height="25"/><text class="j" x="1577" y="292">JSON</text></a><rect class="l" x="1668" y="275" width="28" height="25" rx="7"/><text class="j" x="1678" y="292">}</text><rect class="l" x="1766" y="65" width="25" height="25" rx="7"/><text class="j" x="1776" y="82">]</text></svg>