<svg version="1.1" xmlns:xlink="http://www.w3.org/1999/xlink" xmlns="http://www.w3.org/2000/svg" width="282" height="65"><defs><style type="text/css">.c{fill:none;stroke:#222222;}.i{fill:#000000;font-family:Verdana,Sans-serif;font-size:12px;}.l{fill:#90d9ff;stroke:#222222;}.r{fill:#d3f0ff;stroke:#222222;}</style></defs><path class="c" d="M0 22h25m83 0h169m-267 0q5 0 5 5v20q0 5 5 5h5m83 0h10m24 0h10m105 0h5q5 0 5-5v-20q0-5 5-5m5 0h5"/><a xlink:href="#Command"><rect class="r" x="25" y="5" width="83" height="25"/><text class="i" x="35" y="22">Command</text></a><a xlink:href="#Command"><rect class="r" x="25" y="35" width="83" height="25"/><text class="i" x="35" y="52">Command</text></a><rect class="l" x="118" y="35" width="24" height="25" rx="7"/><text class="i" x="128" y="52">,</text><a xlink:href="#CommandList"><rect class="r" x="152" y="35" width="105" height="25"/><text class="i" x="162" y="52">CommandList</text></a></svg>