<svg version="1.1" xmlns:xlink="http://www.w3.org/1999/xlink" xmlns="http://www.w3.org/2000/svg" width="200" height="65"><defs><style type="text/css">.c{fill:none;stroke:#222222;}.i{fill:#000000;font-family:Verdana,Sans-serif;font-size:12px;}.l{fill:#90d9ff;stroke:#222222;}.r{fill:#d3f0ff;stroke:#222222;}</style></defs><path class="c" d="M0 22h25m86 0h84m-185 0q5 0 5 5v20q0 5 5 5h5m28 0h10m74 0h10m28 0h5q5 0 5-5v-20q0-5 5-5m5 0h5"/><a xlink:href="#MathString"><rect class="r" x="25" y="5" width="86" height="25"/><text class="i" x="35" y="22">MathString</text></a><rect class="l" x="25" y="35" width="28" height="25" rx="7"/><text class="i" x="35" y="52">{</text><a xlink:href="#Members"><rect class="r" x="63" y="35" width="74" height="25"/><text class="i" x="73" y="52">Members</text></a><rect class="l" x="147" y="35" width="28" height="25" rx="7"/><text class="i" x="157" y="52">}</text></svg>