<svg version="1.1" xmlns:xlink="http://www.w3.org/1999/xlink" xmlns="http://www.w3.org/2000/svg" width="189" height="65"><defs><style type="text/css">.c{fill:none;stroke:#222222;}.j{fill:#000000;font-family:Verdana,Sans-serif;font-size:12px;}.l{fill:#90d9ff;stroke:#222222;}.r{fill:#d3f0ff;stroke:#222222;}</style></defs><path class="c" d="M0 37h5m28 0h30m-5 0q-5 0-5-5v-17q0-5 5-5h111q5 0 5 5v17q0 5-5 5m-106 0h20m61 0h20m-96 0q5 0 5 5v8q0 5 5 5h71q5 0 5-5v-8q0-5 5-5m5 0h25"/><rect class="l" x="5" y="20" width="28" height="25" rx="7"/><text class="j" x="15" y="37">$</text><a xlink:href="#A-Za-z"><rect class="r" x="83" y="20" width="61" height="25"/><text class="j" x="93" y="37">A-Za-z</text></a></svg>