<svg version="1.1" xmlns:xlink="http://www.w3.org/1999/xlink" xmlns="http://www.w3.org/2000/svg" width="222" height="65"><defs><style type="text/css">.c{fill:none;stroke:#222222;}.j{fill:#000000;font-family:Verdana,Sans-serif;font-size:12px;}.l{fill:#90d9ff;stroke:#222222;}.r{fill:#d3f0ff;stroke:#222222;}</style></defs><path class="c" d="M0 22h25m30 0h162m-207 0q5 0 5 5v20q0 5 5 5h5m25 0h10m102 0h10m25 0h5q5 0 5-5v-20q0-5 5-5m5 0h5"/><rect class="l" x="25" y="5" width="30" height="25" rx="7"/><text class="j" x="35" y="22">[]</text><rect class="l" x="25" y="35" width="25" height="25" rx="7"/><text class="j" x="35" y="52">[</text><a xlink:href="#CommandList"><rect class="r" x="60" y="35" width="102" height="25"/><text class="j" x="70" y="52">CommandList</text></a><rect class="l" x="172" y="35" width="25" height="25" rx="7"/><text class="j" x="182" y="52">]</text></svg>