<svg version="1.1" xmlns:xlink="http://www.w3.org/1999/xlink" xmlns="http://www.w3.org/2000/svg" width="620" height="245"><defs><style type="text/css">.c{fill:none;stroke:#222222;}.j{fill:#000000;font-family:Verdana,Sans-serif;font-size:12px;}.l{fill:#90d9ff;stroke:#222222;}.r{fill:#d3f0ff;stroke:#222222;}</style></defs><path class="c" d="M0 52h5m25 0h50m-5 0q-5 0-5-5v-32q0-5 5-5h470q5 0 5 5v32q0 5-5 5m-465 0h20m26 0h30m-5 0q-5 0-5-5v-17q0-5 5-5h110q5 0 5 5v17q0 5-5 5m-5 0h30m26 0h194m-416 55q0 5 5 5h5m28 0h30m-5 0q-5 0-5-5v-32q0-5 5-5h273q5 0 5 5v32q0 5-5 5m-268 0h20m-5 0q-5 0-5-5v-17q0-5 5-5h71q5 0 5 5v17q0 5-5 5m-5 0h30m25 0h10m83 0h10m24 0h30m28 0h12q5 0 5-5m-406 45q0 5 5 5h5m28 0h30m-5 0q-5 0-5-5v-17q0-5 5-5h241q5 0 5 5v17q0 5-5 5m-167 0h10m25 0h10m83 0h10m24 0h30m28 0h44q5 0 5-5m-411-100q5 0 5 5v155q0 5 5 5h5m28 0h30m-5 0q-5 0-5-5v-32q0-5 5-5h280q5 0 5 5v32q0 5-5 5m-247 0h30m-5 0q-5 0-5-5v-17q0-5 5-5h71q5 0 5 5v17q0 5-5 5m-5 0h30m25 0h10m52 0h10m24 0h30m28 0h5q5 0 5-5v-155q0-5 5-5m5 0h10m24 0h40m-535 0q5 0 5 5v173q0 5 5 5h510q5 0 5-5v-173q0-5 5-5m5 0h10m25 0h5"/><rect class="l" x="5" y="35" width="25" height="25" rx="7"/><text class="j" x="15" y="52">[</text><rect class="l" x="100" y="35" width="26" height="25" rx="7"/><text class="j" x="110" y="52">&quot;</text><a xlink:href="#UnicodeChar"><rect class="r" x="156" y="35" width="100" height="25"/><text class="j" x="166" y="52">UnicodeChar</text></a><rect class="l" x="286" y="35" width="26" height="25" rx="7"/><text class="j" x="296" y="52">&quot;</text><rect class="l" x="100" y="95" width="28" height="25" rx="7"/><text class="j" x="110" y="112">{</text><a xlink:href="#A-Za-z"><rect class="r" x="178" y="95" width="61" height="25"/><text class="j" x="188" y="112">A-Za-z</text></a><rect class="l" x="269" y="95" width="25" height="25" rx="7"/><text class="j" x="279" y="112">:</text><a xlink:href="#MathBlock"><rect class="r" x="304" y="95" width="83" height="25"/><text class="j" x="314" y="112">MathBlock</text></a><rect class="l" x="397" y="95" width="24" height="25" rx="7"/><text class="j" x="407" y="112">,</text><rect class="l" x="451" y="95" width="28" height="25" rx="7"/><text class="j" x="461" y="112">}</text><rect class="l" x="100" y="140" width="28" height="25" rx="7"/><text class="j" x="110" y="157">{</text><rect class="l" x="158" y="140" width="69" height="25" rx="7"/><text class="j" x="168" y="157">_inline_</text><rect class="l" x="237" y="140" width="25" height="25" rx="7"/><text class="j" x="247" y="157">:</text><a xlink:href="#MathBlock"><rect class="r" x="272" y="140" width="83" height="25"/><text class="j" x="282" y="157">MathBlock</text></a><rect class="l" x="365" y="140" width="24" height="25" rx="7"/><text class="j" x="375" y="157">,</text><rect class="l" x="419" y="140" width="28" height="25" rx="7"/><text class="j" x="429" y="157">}</text><rect class="l" x="100" y="200" width="28" height="25" rx="7"/><text class="j" x="110" y="217">{</text><rect class="l" x="158" y="200" width="28" height="25" rx="7"/><text class="j" x="168" y="217">$</text><a xlink:href="#A-Za-z"><rect class="r" x="216" y="200" width="61" height="25"/><text class="j" x="226" y="217">A-Za-z</text></a><rect class="l" x="307" y="200" width="25" height="25" rx="7"/><text class="j" x="317" y="217">:</text><a xlink:href="#JSON"><rect class="r" x="342" y="200" width="52" height="25"/><text class="j" x="352" y="217">JSON</text></a><rect class="l" x="404" y="200" width="24" height="25" rx="7"/><text class="j" x="414" y="217">,</text><rect class="l" x="458" y="200" width="28" height="25" rx="7"/><text class="j" x="468" y="217">}</text><rect class="l" x="516" y="35" width="24" height="25" rx="7"/><text class="j" x="526" y="52">,</text><rect class="l" x="590" y="35" width="25" height="25" rx="7"/><text class="j" x="600" y="52">]</text></svg>