<svg version="1.1" xmlns:xlink="http://www.w3.org/1999/xlink" xmlns="http://www.w3.org/2000/svg" width="1828" height="350"><defs><style type="text/css">.c{fill:none;stroke:#222222;}.j{fill:#000000;font-family:Verdana,Sans-serif;font-size:12px;}.l{fill:#90d9ff;stroke:#222222;}.r{fill:#d3f0ff;stroke:#222222;}</style></defs><path class="c" d="M0 22h25m30 0h1768m-1813 0q5 0 5 5v50q0 5 5 5h5m25 0h30m26 0h30m-5 0q-5 0-5-5v-17q0-5 5-5h110q5 0 5 5v17q0 5-5 5m-5 0h30m26 0h560m-782 55q0 5 5 5h5m28 0h30m-5 0q-5 0-5-5v-17q0-5 5-5h111q5 0 5 5v17q0 5-5 5m-106 0h20m61 0h20m-96 0q5 0 5 5v8q0 5 5 5h71q5 0 5-5v-8q0-5 5-5m5 0h30m25 0h10m83 0h50m-5 0q-5 0-5-5v-32q0-5 5-5h313q5 0 5 5v32q0 5-5 5m-284 0h30m-5 0q-5 0-5-5v-17q0-5 5-5h111q5 0 5 5v17q0 5-5 5m-106 0h20m61 0h20m-96 0q5 0 5 5v8q0 5 5 5h71q5 0 5-5v-8q0-5 5-5m5 0h30m25 0h10m83 0h40m-378 0q5 0 5 5v23q0 5 5 5h353q5 0 5-5v-23q0-5 5-5m5 0h10m28 0h19q5 0 5-5m-772 75q0 5 5 5h5m28 0h10m69 0h10m25 0h10m83 0h50m-5 0q-5 0-5-5v-17q0-5 5-5h241q5 0 5 5v17q0 5-5 5m-212 0h10m69 0h10m25 0h10m83 0h40m-306 0q5 0 5 5v8q0 5 5 5h281q5 0 5-5v-8q0-5 5-5m5 0h10m28 0h163q5 0 5-5m-777-130q5 0 5 5v200q0 5 5 5h5m28 0h10m28 0h30m-5 0q-5 0-5-5v-17q0-5 5-5h111q5 0 5 5v17q0 5-5 5m-106 0h20m61 0h20m-96 0q5 0 5 5v8q0 5 5 5h71q5 0 5-5v-8q0-5 5-5m5 0h30m25 0h10m52 0h50m-5 0q-5 0-5-5v-32q0-5 5-5h320q5 0 5 5v32q0 5-5 5m-291 0h10m28 0h30m-5 0q-5 0-5-5v-17q0-5 5-5h111q5 0 5 5v17q0 5-5 5m-106 0h20m61 0h20m-96 0q5 0 5 5v8q0 5 5 5h71q5 0 5-5v-8q0-5 5-5m5 0h30m25 0h10m52 0h40m-385 0q5 0 5 5v23q0 5 5 5h360q5 0 5-5v-23q0-5 5-5m5 0h10m28 0h5q5 0 5-5v-200q0-5 5-5m5 0h50m-5 0q-5 0-5-5v-32q0-5 5-5h836q5 0 5 5v32q0 5-5 5m-807 0h30m26 0h30m-5 0q-5 0-5-5v-17q0-5 5-5h110q5 0 5 5v17q0 5-5 5m-5 0h30m26 0h560m-782 55q0 5 5 5h5m28 0h30m-5 0q-5 0-5-5v-17q0-5 5-5h111q5 0 5 5v17q0 5-5 5m-106 0h20m61 0h20m-96 0q5 0 5 5v8q0 5 5 5h71q5 0 5-5v-8q0-5 5-5m5 0h30m25 0h10m83 0h50m-5 0q-5 0-5-5v-32q0-5 5-5h313q5 0 5 5v32q0 5-5 5m-284 0h30m-5 0q-5 0-5-5v-17q0-5 5-5h111q5 0 5 5v17q0 5-5 5m-106 0h20m61 0h20m-96 0q5 0 5 5v8q0 5 5 5h71q5 0 5-5v-8q0-5 5-5m5 0h30m25 0h10m83 0h40m-378 0q5 0 5 5v23q0 5 5 5h353q5 0 5-5v-23q0-5 5-5m5 0h10m28 0h19q5 0 5-5m-772 75q0 5 5 5h5m28 0h10m69 0h10m25 0h10m83 0h50m-5 0q-5 0-5-5v-17q0-5 5-5h241q5 0 5 5v17q0 5-5 5m-212 0h10m69 0h10m25 0h10m83 0h40m-306 0q5 0 5 5v8q0 5 5 5h281q5 0 5-5v-8q0-5 5-5m5 0h10m28 0h163q5 0 5-5m-777-130q5 0 5 5v200q0 5 5 5h5m28 0h10m28 0h30m-5 0q-5 0-5-5v-17q0-5 5-5h111q5 0 5 5v17q0 5-5 5m-106 0h20m61 0h20m-96 0q5 0 5 5v8q0 5 5 5h71q5 0 5-5v-8q0-5 5-5m5 0h30m25 0h10m52 0h50m-5 0q-5 0-5-5v-32q0-5 5-5h320q5 0 5 5v32q0 5-5 5m-291 0h10m28 0h30m-5 0q-5 0-5-5v-17q0-5 5-5h111q5 0 5 5v17q0 5-5 5m-106 0h20m61 0h20m-96 0q5 0 5 5v8q0 5 5 5h71q5 0 5-5v-8q0-5 5-5m5 0h30m25 0h10m52 0h40m-385 0q5 0 5 5v23q0 5 5 5h360q5 0 5-5v-23q0-5 5-5m5 0h10m28 0h5q5 0 5-5v-200q0-5 5-5m5 0h40m-901 0q5 0 5 5v248q0 5 5 5h876q5 0 5-5v-248q0-5 5-5m5 0h10m25 0h5q5 0 5-5v-50q0-5 5-5m5 0h5"/><rect class="l" x="25" y="5" width="30" height="25" rx="7"/><text class="j" x="35" y="22">[]</text><rect class="l" x="25" y="65" width="25" height="25" rx="7"/><text class="j" x="35" y="82">[</text><rect class="l" x="80" y="65" width="26" height="25" rx="7"/><text class="j" x="90" y="82">&quot;</text><a xlink:href="#UnicodeChar"><rect class="r" x="136" y="65" width="100" height="25"/><text class="j" x="146" y="82">UnicodeChar</text></a><rect class="l" x="266" y="65" width="26" height="25" rx="7"/><text class="j" x="276" y="82">&quot;</text><rect class="l" x="80" y="125" width="28" height="25" rx="7"/><text class="j" x="90" y="142">{</text><a xlink:href="#A-Za-z"><rect class="r" x="158" y="125" width="61" height="25"/><text class="j" x="168" y="142">A-Za-z</text></a><rect class="l" x="269" y="125" width="25" height="25" rx="7"/><text class="j" x="279" y="142">:</text><a xlink:href="#MathBlock"><rect class="r" x="304" y="125" width="83" height="25"/><text class="j" x="314" y="142">MathBlock</text></a><rect class="l" x="437" y="125" width="24" height="25" rx="7"/><text class="j" x="447" y="142">,</text><a xlink:href="#A-Za-z"><rect class="r" x="511" y="125" width="61" height="25"/><text class="j" x="521" y="142">A-Za-z</text></a><rect class="l" x="622" y="125" width="25" height="25" rx="7"/><text class="j" x="632" y="142">:</text><a xlink:href="#MathBlock"><rect class="r" x="657" y="125" width="83" height="25"/><text class="j" x="667" y="142">MathBlock</text></a><rect class="l" x="790" y="125" width="28" height="25" rx="7"/><text class="j" x="800" y="142">}</text><rect class="l" x="80" y="200" width="28" height="25" rx="7"/><text class="j" x="90" y="217">{</text><rect class="l" x="118" y="200" width="69" height="25" rx="7"/><text class="j" x="128" y="217">_inline_</text><rect class="l" x="197" y="200" width="25" height="25" rx="7"/><text class="j" x="207" y="217">:</text><a xlink:href="#MathBlock"><rect class="r" x="232" y="200" width="83" height="25"/><text class="j" x="242" y="217">MathBlock</text></a><rect class="l" x="365" y="200" width="24" height="25" rx="7"/><text class="j" x="375" y="217">,</text><rect class="l" x="399" y="200" width="69" height="25" rx="7"/><text class="j" x="409" y="217">_inline_</text><rect class="l" x="478" y="200" width="25" height="25" rx="7"/><text class="j" x="488" y="217">:</text><a xlink:href="#MathBlock"><rect class="r" x="513" y="200" width="83" height="25"/><text class="j" x="523" y="217">MathBlock</text></a><rect class="l" x="646" y="200" width="28" height="25" rx="7"/><text class="j" x="656" y="217">}</text><rect class="l" x="80" y="275" width="28" height="25" rx="7"/><text class="j" x="90" y="292">{</text><rect class="l" x="118" y="275" width="28" height="25" rx="7"/><text class="j" x="128" y="292">$</text><a xlink:href="#A-Za-z"><rect class="r" x="196" y="275" width="61" height="25"/><text class="j" x="206" y="292">A-Za-z</text></a><rect class="l" x="307" y="275" width="25" height="25" rx="7"/><text class="j" x="317" y="292">:</text><a xlink:href="#JSON"><rect class="r" x="342" y="275" width="52" height="25"/><text class="j" x="352" y="292">JSON</text></a><rect class="l" x="444" y="275" width="24" height="25" rx="7"/><text class="j" x="454" y="292">,</text><rect class="l" x="478" y="275" width="28" height="25" rx="7"/><text class="j" x="488" y="292">$</text><a xlink:href="#A-Za-z"><rect class="r" x="556" y="275" width="61" height="25"/><text class="j" x="566" y="292">A-Za-z</text></a><rect class="l" x="667" y="275" width="25" height="25" rx="7"/><text class="j" x="677" y="292">:</text><a xlink:href="#JSON"><rect class="r" x="702" y="275" width="52" height="25"/><text class="j" x="712" y="292">JSON</text></a><rect class="l" x="804" y="275" width="28" height="25" rx="7"/><text class="j" x="814" y="292">}</text><rect class="l" x="902" y="65" width="24" height="25" rx="7"/><text class="j" x="912" y="82">,</text><rect class="l" x="956" y="65" width="26" height="25" rx="7"/><text class="j" x="966" y="82">&quot;</text><a xlink:href="#UnicodeChar"><rect class="r" x="1012" y="65" width="100" height="25"/><text class="j" x="1022" y="82">UnicodeChar</text></a><rect class="l" x="1142" y="65" width="26" height="25" rx="7"/><text class="j" x="1152" y="82">&quot;</text><rect class="l" x="956" y="125" width="28" height="25" rx="7"/><text class="j" x="966" y="142">{</text><a xlink:href="#A-Za-z"><rect class="r" x="1034" y="125" width="61" height="25"/><text class="j" x="1044" y="142">A-Za-z</text></a><rect class="l" x="1145" y="125" width="25" height="25" rx="7"/><text class="j" x="1155" y="142">:</text><a xlink:href="#MathBlock"><rect class="r" x="1180" y="125" width="83" height="25"/><text class="j" x="1190" y="142">MathBlock</text></a><rect class="l" x="1313" y="125" width="24" height="25" rx="7"/><text class="j" x="1323" y="142">,</text><a xlink:href="#A-Za-z"><rect class="r" x="1387" y="125" width="61" height="25"/><text class="j" x="1397" y="142">A-Za-z</text></a><rect class="l" x="1498" y="125" width="25" height="25" rx="7"/><text class="j" x="1508" y="142">:</text><a xlink:href="#MathBlock"><rect class="r" x="1533" y="125" width="83" height="25"/><text class="j" x="1543" y="142">MathBlock</text></a><rect class="l" x="1666" y="125" width="28" height="25" rx="7"/><text class="j" x="1676" y="142">}</text><rect class="l" x="956" y="200" width="28" height="25" rx="7"/><text class="j" x="966" y="217">{</text><rect class="l" x="994" y="200" width="69" height="25" rx="7"/><text class="j" x="1004" y="217">_inline_</text><rect class="l" x="1073" y="200" width="25" height="25" rx="7"/><text class="j" x="1083" y="217">:</text><a xlink:href="#MathBlock"><rect class="r" x="1108" y="200" width="83" height="25"/><text class="j" x="1118" y="217">MathBlock</text></a><rect class="l" x="1241" y="200" width="24" height="25" rx="7"/><text class="j" x="1251" y="217">,</text><rect class="l" x="1275" y="200" width="69" height="25" rx="7"/><text class="j" x="1285" y="217">_inline_</text><rect class="l" x="1354" y="200" width="25" height="25" rx="7"/><text class="j" x="1364" y="217">:</text><a xlink:href="#MathBlock"><rect class="r" x="1389" y="200" width="83" height="25"/><text class="j" x="1399" y="217">MathBlock</text></a><rect class="l" x="1522" y="200" width="28" height="25" rx="7"/><text class="j" x="1532" y="217">}</text><rect class="l" x="956" y="275" width="28" height="25" rx="7"/><text class="j" x="966" y="292">{</text><rect class="l" x="994" y="275" width="28" height="25" rx="7"/><text class="j" x="1004" y="292">$</text><a xlink:href="#A-Za-z"><rect class="r" x="1072" y="275" width="61" height="25"/><text class="j" x="1082" y="292">A-Za-z</text></a><rect class="l" x="1183" y="275" width="25" height="25" rx="7"/><text class="j" x="1193" y="292">:</text><a xlink:href="#JSON"><rect class="r" x="1218" y="275" width="52" height="25"/><text class="j" x="1228" y="292">JSON</text></a><rect class="l" x="1320" y="275" width="24" height="25" rx="7"/><text class="j" x="1330" y="292">,</text><rect class="l" x="1354" y="275" width="28" height="25" rx="7"/><text class="j" x="1364" y="292">$</text><a xlink:href="#A-Za-z"><rect class="r" x="1432" y="275" width="61" height="25"/><text class="j" x="1442" y="292">A-Za-z</text></a><rect class="l" x="1543" y="275" width="25" height="25" rx="7"/><text class="j" x="1553" y="292">:</text><a xlink:href="#JSON"><rect class="r" x="1578" y="275" width="52" height="25"/><text class="j" x="1588" y="292">JSON</text></a><rect class="l" x="1680" y="275" width="28" height="25" rx="7"/><text class="j" x="1690" y="292">}</text><rect class="l" x="1778" y="65" width="25" height="25" rx="7"/><text class="j" x="1788" y="82">]</text></svg>