<svg version="1.1" xmlns:xlink="http://www.w3.org/1999/xlink" xmlns="http://www.w3.org/2000/svg" width="284" height="95"><defs><style type="text/css">.c{fill:none;stroke:#222222;}.i{fill:#000000;font-family:Verdana,Sans-serif;font-size:12px;}.l{fill:#90d9ff;stroke:#222222;}.r{fill:#d3f0ff;stroke:#222222;}</style></defs><path class="c" d="M0 22h25m106 0h10m25 0h10m83 0h20m-264 25q0 5 5 5h5m69 0h10m25 0h10m83 0h42q5 0 5-5m-259-25q5 0 5 5v50q0 5 5 5h5m98 0h10m25 0h10m52 0h44q5 0 5-5v-50q0-5 5-5m5 0h5"/><a xlink:href="#CommandKey"><rect class="r" x="25" y="5" width="106" height="25"/><text class="i" x="35" y="22">CommandKey</text></a><rect class="l" x="141" y="5" width="25" height="25" rx="7"/><text class="i" x="151" y="22">:</text><a xlink:href="#MathBlock"><rect class="r" x="176" y="5" width="83" height="25"/><text class="i" x="186" y="22">MathBlock</text></a><rect class="l" x="25" y="35" width="69" height="25" rx="7"/><text class="i" x="35" y="52">_inline_</text><rect class="l" x="104" y="35" width="25" height="25" rx="7"/><text class="i" x="114" y="52">:</text><a xlink:href="#MathBlock"><rect class="r" x="139" y="35" width="83" height="25"/><text class="i" x="149" y="52">MathBlock</text></a><a xlink:href="#AttributeKey"><rect class="r" x="25" y="65" width="98" height="25"/><text class="i" x="35" y="82">AttributeKey</text></a><rect class="l" x="133" y="65" width="25" height="25" rx="7"/><text class="i" x="143" y="82">:</text><a xlink:href="#JSON"><rect class="r" x="168" y="65" width="52" height="25"/><text class="i" x="178" y="82">JSON</text></a></svg>