<svg version="1.1" xmlns:xlink="http://www.w3.org/1999/xlink" xmlns="http://www.w3.org/2000/svg" width="657" height="215"><defs><style type="text/css">.c{fill:none;stroke:#222222;}.j{fill:#000000;font-family:Verdana,Sans-serif;font-size:12px;}.l{fill:#90d9ff;stroke:#222222;}.r{fill:#d3f0ff;stroke:#222222;}</style></defs><path class="c" d="M0 52h5m25 0h50m-5 0q-5 0-5-5v-32q0-5 5-5h507q5 0 5 5v32q0 5-5 5m-502 0h20m26 0h30m-5 0q-5 0-5-5v-17q0-5 5-5h105q5 0 5 5v17q0 5-5 5m-5 0h30m26 0h10m24 0h202m-458 0q5 0 5 5v50q0 5 5 5h5m28 0h30m-5 0q-5 0-5-5v-32q0-5 5-5h317q5 0 5 5v32q0 5-5 5m-312 0h40m-5 0q-5 0-5-5v-17q0-5 5-5h69q5 0 5 5v17q0 5-5 5m-5 0h30m25 0h10m81 0h10m24 0h28m-297 25q0 5 5 5h5m68 0h10m25 0h10m81 0h10m24 0h44q5 0 5-5m-292-25q5 0 5 5v65q0 5 5 5h5m28 0h30m-5 0q-5 0-5-5v-17q0-5 5-5h69q5 0 5 5v17q0 5-5 5m-5 0h30m25 0h10m51 0h10m24 0h5q5 0 5-5v-65q0-5 5-5m5 0h30m28 0h5q5 0 5-5v-50q0-5 5-5m5 0h10m24 0h40m-572 0q5 0 5 5v143q0 5 5 5h547q5 0 5-5v-143q0-5 5-5m5 0h10m25 0h5"/><rect class="l" x="5" y="35" width="25" height="25" rx="7"/><text class="j" x="15" y="52">[</text><rect class="l" x="100" y="35" width="26" height="25" rx="7"/><text class="j" x="110" y="52">&quot;</text><a xlink:href="#UnicodeChar"><rect class="r" x="156" y="35" width="95" height="25"/><text class="j" x="166" y="52">UnicodeChar</text></a><rect class="l" x="281" y="35" width="26" height="25" rx="7"/><text class="j" x="291" y="52">&quot;</text><rect class="l" x="317" y="35" width="24" height="25" rx="7"/><text class="j" x="327" y="52">,</text><rect class="l" x="100" y="95" width="28" height="25" rx="7"/><text class="j" x="110" y="112">{</text><a xlink:href="#A-Za-z"><rect class="r" x="198" y="95" width="59" height="25"/><text class="j" x="208" y="112">A-Za-z</text></a><rect class="l" x="287" y="95" width="25" height="25" rx="7"/><text class="j" x="297" y="112">:</text><a xlink:href="#MathBlock"><rect class="r" x="322" y="95" width="81" height="25"/><text class="j" x="332" y="112">MathBlock</text></a><rect class="l" x="413" y="95" width="24" height="25" rx="7"/><text class="j" x="423" y="112">,</text><rect class="l" x="178" y="125" width="68" height="25" rx="7"/><text class="j" x="188" y="142">_inline_</text><rect class="l" x="256" y="125" width="25" height="25" rx="7"/><text class="j" x="266" y="142">:</text><a xlink:href="#MathBlock"><rect class="r" x="291" y="125" width="81" height="25"/><text class="j" x="301" y="142">MathBlock</text></a><rect class="l" x="382" y="125" width="24" height="25" rx="7"/><text class="j" x="392" y="142">,</text><rect class="l" x="178" y="170" width="28" height="25" rx="7"/><text class="j" x="188" y="187">$</text><a xlink:href="#A-Za-z"><rect class="r" x="236" y="170" width="59" height="25"/><text class="j" x="246" y="187">A-Za-z</text></a><rect class="l" x="325" y="170" width="25" height="25" rx="7"/><text class="j" x="335" y="187">:</text><a xlink:href="#JSON"><rect class="r" x="360" y="170" width="51" height="25"/><text class="j" x="370" y="187">JSON</text></a><rect class="l" x="421" y="170" width="24" height="25" rx="7"/><text class="j" x="431" y="187">,</text><rect class="l" x="495" y="95" width="28" height="25" rx="7"/><text class="j" x="505" y="112">}</text><rect class="l" x="553" y="35" width="24" height="25" rx="7"/><text class="j" x="563" y="52">,</text><rect class="l" x="627" y="35" width="25" height="25" rx="7"/><text class="j" x="637" y="52">]</text></svg>