<svg version="1.1" xmlns:xlink="http://www.w3.org/1999/xlink" xmlns="http://www.w3.org/2000/svg" width="277" height="65"><defs><style type="text/css">.c{fill:none;stroke:#222222;}.i{fill:#000000;font-family:Verdana,Sans-serif;font-size:12px;}.l{fill:#90d9ff;stroke:#222222;}.r{fill:#d3f0ff;stroke:#222222;}</style></defs><path class="c" d="M0 22h25m81 0h166m-262 0q5 0 5 5v20q0 5 5 5h5m81 0h10m24 0h10m102 0h5q5 0 5-5v-20q0-5 5-5m5 0h5"/><a xlink:href="#Command"><rect class="r" x="25" y="5" width="81" height="25"/><text class="i" x="35" y="22">Command</text></a><a xlink:href="#Command"><rect class="r" x="25" y="35" width="81" height="25"/><text class="i" x="35" y="52">Command</text></a><rect class="l" x="116" y="35" width="24" height="25" rx="7"/><text class="i" x="126" y="52">,</text><a xlink:href="#CommandList"><rect class="r" x="150" y="35" width="102" height="25"/><text class="i" x="160" y="52">CommandList</text></a></svg>