<svg version="1.1" xmlns:xlink="http://www.w3.org/1999/xlink" xmlns="http://www.w3.org/2000/svg" width="215" height="65"><defs><style type="text/css">.c{fill:none;stroke:#222222;}.i{fill:#000000;font-family:Verdana,Sans-serif;font-size:12px;}.l{fill:#90d9ff;stroke:#222222;}.r{fill:#d3f0ff;stroke:#222222;}</style></defs><path class="c" d="M0 22h25m44 0h141m-200 0q5 0 5 5v20q0 5 5 5h5m44 0h10m24 0h10m77 0h5q5 0 5-5v-20q0-5 5-5m5 0h5"/><a xlink:href="#Pair"><rect class="r" x="25" y="5" width="44" height="25"/><text class="i" x="35" y="22">Pair</text></a><a xlink:href="#Pair"><rect class="r" x="25" y="35" width="44" height="25"/><text class="i" x="35" y="52">Pair</text></a><rect class="l" x="79" y="35" width="24" height="25" rx="7"/><text class="i" x="89" y="52">,</text><a xlink:href="#Members"><rect class="r" x="113" y="35" width="77" height="25"/><text class="i" x="123" y="52">Members</text></a></svg>