<svg version="1.1" xmlns:xlink="http://www.w3.org/1999/xlink" xmlns="http://www.w3.org/2000/svg" width="149" height="65"><defs><style type="text/css">.c{fill:none;stroke:#222222;}.i{fill:#000000;font-family:Verdana,Sans-serif;font-size:12px;}.r{fill:#d3f0ff;stroke:#222222;}</style></defs><path class="c" d="M0 37h25m-5 0q-5 0-5-5v-17q0-5 5-5h109q5 0 5 5v17q0 5-5 5m-104 0h20m59 0h20m-94 0q5 0 5 5v8q0 5 5 5h69q5 0 5-5v-8q0-5 5-5m5 0h25"/><a xlink:href="#A-Za-z"><rect class="r" x="45" y="20" width="59" height="25"/><text class="i" x="55" y="37">A-Za-z</text></a></svg>