<svg version="1.1" xmlns:xlink="http://www.w3.org/1999/xlink" xmlns="http://www.w3.org/2000/svg" width="279" height="95"><defs><style type="text/css">.c{fill:none;stroke:#222222;}.i{fill:#000000;font-family:Verdana,Sans-serif;font-size:12px;}.l{fill:#90d9ff;stroke:#222222;}.r{fill:#d3f0ff;stroke:#222222;}</style></defs><path class="c" d="M0 22h25m103 0h10m25 0h10m81 0h20m-259 25q0 5 5 5h5m68 0h10m25 0h10m81 0h40q5 0 5-5m-254-25q5 0 5 5v50q0 5 5 5h5m95 0h10m25 0h10m51 0h43q5 0 5-5v-50q0-5 5-5m5 0h5"/><a xlink:href="#CommandKey"><rect class="r" x="25" y="5" width="103" height="25"/><text class="i" x="35" y="22">CommandKey</text></a><rect class="l" x="138" y="5" width="25" height="25" rx="7"/><text class="i" x="148" y="22">:</text><a xlink:href="#MathBlock"><rect class="r" x="173" y="5" width="81" height="25"/><text class="i" x="183" y="22">MathBlock</text></a><rect class="l" x="25" y="35" width="68" height="25" rx="7"/><text class="i" x="35" y="52">_inline_</text><rect class="l" x="103" y="35" width="25" height="25" rx="7"/><text class="i" x="113" y="52">:</text><a xlink:href="#MathBlock"><rect class="r" x="138" y="35" width="81" height="25"/><text class="i" x="148" y="52">MathBlock</text></a><a xlink:href="#AttributeKey"><rect class="r" x="25" y="65" width="95" height="25"/><text class="i" x="35" y="82">AttributeKey</text></a><rect class="l" x="130" y="65" width="25" height="25" rx="7"/><text class="i" x="140" y="82">:</text><a xlink:href="#JSON"><rect class="r" x="165" y="65" width="51" height="25"/><text class="i" x="175" y="82">JSON</text></a></svg>